<svg  xmlns="http://www.w3.org/2000/svg" viewBox="0 0 443.96 114.11">
                        <defs>
                            <style>
                                .cls-1 {
                                    fill: #ed1c24;
                                }
                            </style>
                        </defs>
                        <path class="cls-1" d="M404.6,27.8a42.93,42.93,0,0,0-28.24,10.6V0H361.45V71A43.16,43.16,0,1,0,404.6,27.8Zm0,71.39A28.24,28.24,0,1,1,432.84,71,28.27,28.27,0,0,1,404.6,99.19Z" transform="translate(-3.8)"></path>
                        <path class="cls-1" d="M212.68,38.39A43.1,43.1,0,1,0,227.6,71V0H212.68Zm-28.24,60.8A28.24,28.24,0,1,1,212.68,71,28.27,28.27,0,0,1,184.44,99.19Z" transform="translate(-3.8)"></path>
                        <rect class="cls-1" x="236.93" width="14.92" height="113.1"></rect>
                        <path class="cls-1" d="M308.54,27.8a43.16,43.16,0,1,0,28.24,75.71v9.59H351.7V71A43.2,43.2,0,0,0,308.54,27.8Zm0,71.39A28.24,28.24,0,1,1,336.78,71,28.27,28.27,0,0,1,308.54,99.19Z" transform="translate(-3.8)"></path>
                        <path class="cls-1" d="M18.71,29.65H3.8V113.1H18.71V68.42c0-15.57,12.67-25.7,28.24-25.7V27.8a42.93,42.93,0,0,0-28.24,10.6Z" transform="translate(-3.8)"></path>
                        <path class="cls-1" d="M93.15,27.8a43.16,43.16,0,1,0,30.51,73.67L113.11,90.92A28.24,28.24,0,0,1,65.91,78.41H136.3V71A43.2,43.2,0,0,0,93.15,27.8ZM65.91,63.49a28.24,28.24,0,0,1,54.48,0Z" transform="translate(-3.8)"></path>
                    </svg>